<svg width="627" height="440" viewBox="0 0 627 440" fill="none" xmlns="http://www.w3.org/2000/svg">
<g filter="url(#filter0_d_6_8)">
<path fill-rule="evenodd" clip-rule="evenodd" d="M146.535 23.8083C190.942 7.89746 239.524 8.07062 283.816 24.2977C328.109 40.5247 365.305 71.777 388.923 112.61C389.615 113.805 391.144 114.213 392.339 113.522C393.534 112.831 393.943 111.301 393.252 110.106C369.047 68.2603 330.928 36.2325 285.536 19.6028C240.145 2.97312 190.357 2.79566 144.848 19.1014C99.3392 35.4071 60.9931 67.1623 36.4908 108.835C11.9884 150.507 2.88296 199.455 10.7607 247.151C18.6385 294.847 43.0001 338.267 79.6014 369.847C116.203 401.427 162.723 419.166 211.059 419.971C259.394 420.777 306.48 404.599 344.113 374.257C381.747 343.914 407.542 301.33 417.005 253.923C417.276 252.569 416.397 251.252 415.043 250.982C413.689 250.712 412.372 251.59 412.102 252.944C402.868 299.203 377.697 340.756 340.975 370.364C304.253 399.972 258.307 415.758 211.142 414.972C163.977 414.186 118.583 396.877 82.8677 366.062C47.1527 335.246 23.3809 292.877 15.6939 246.336C8.00687 199.795 16.8919 152.032 40.8009 111.369C64.71 70.7056 102.128 39.7192 146.535 23.8083ZM587.196 109.251C588.14 108.841 589.157 108.418 590.198 108.006C590.166 108.358 590.148 108.712 590.152 109.061C590.157 109.624 590.217 110.303 590.432 110.981C590.645 111.653 591.086 112.553 592.011 113.204C594.063 114.647 596.291 113.596 597.425 112.884C598.792 112.026 600.371 110.572 602.23 108.507C603.202 107.427 603.997 106.377 604.483 105.368C604.915 104.471 605.487 102.78 604.51 101.128C603.565 99.5313 601.882 99.2046 601.059 99.1209C600.091 99.0224 599.04 99.1285 598.074 99.2922C594.241 99.9417 588.651 102.076 584.804 103.749C583.284 104.409 582.588 106.177 583.249 107.696C583.909 109.216 585.677 109.912 587.196 109.251ZM596.441 105.905C596.436 105.882 596.432 105.859 596.426 105.837L596.54 105.804L596.441 105.905ZM600.472 105.092C600.505 105.1 600.524 105.102 600.525 105.101C600.526 105.101 600.521 105.099 600.51 105.097C600.501 105.096 600.488 105.094 600.472 105.092ZM599.101 102.713C599.109 102.687 599.115 102.673 599.116 102.672C599.117 102.672 599.113 102.685 599.101 102.713ZM291.998 104.399C291.947 102.875 290.761 101.632 289.241 101.51C287.722 101.387 286.352 102.424 286.057 103.919C278.817 140.618 271.882 169.382 265.382 190.557C260.238 207.316 255.445 219.043 251.14 226.197C249.054 225.35 246.919 224.566 244.736 223.851C242.773 217.478 241.014 208.337 239.528 198.669C237.923 188.236 236.664 177.383 235.804 169.127C235.375 165.002 235.046 161.53 234.825 159.092C234.714 157.873 234.63 156.912 234.574 156.257C234.546 155.93 234.525 155.679 234.511 155.51L234.495 155.32L234.491 155.273L234.491 155.261L234.49 155.258C234.49 155.258 234.49 155.258 233.96 155.301L234.49 155.258C234.362 153.673 233.02 152.464 231.43 152.501C229.841 152.538 228.557 153.808 228.502 155.397C227.762 176.838 222.921 198.712 216.349 218.89C199.19 218.283 179.763 221.573 157.898 230.21C122.34 244.255 95.6996 259.127 78.7006 272.099C70.2214 278.57 63.9999 284.674 60.298 290.081C56.7297 295.292 54.8744 300.836 57.3622 305.429C59.1489 308.728 61.7975 311.113 65.6622 312.22C69.3505 313.276 73.8861 313.09 79.4043 311.946C90.4273 309.659 106.772 303.22 131.229 292.237C153.453 282.256 176.236 272.426 198.396 263.112C191.627 277.024 184.986 288.389 180.007 295.832C179.085 297.209 179.455 299.072 180.832 299.994C182.209 300.915 184.072 300.545 184.993 299.168C190.784 290.514 198.794 276.651 206.689 259.638C225.494 251.786 243.735 244.345 260.671 237.543C263.766 239.34 266.72 241.287 269.537 243.356C294.581 261.748 309.173 290.103 315.642 310.411C316.135 311.958 317.77 312.833 319.331 312.383C320.892 311.933 321.811 310.323 321.405 308.75C312.708 275.074 306.585 247.642 302.211 221.084C316.693 215.422 329.082 210.659 338.561 207.045C345.045 204.574 350.167 202.64 353.668 201.324C355.418 200.666 356.763 200.163 357.67 199.825C358.124 199.655 358.468 199.527 358.698 199.441L358.958 199.345L359.023 199.32L359.039 199.314L359.043 199.313C359.044 199.313 359.044 199.313 358 196.5L359.044 199.313C360.598 198.736 361.389 197.01 360.813 195.456C360.236 193.903 358.51 193.111 356.957 193.687L358 196.5C356.957 193.687 356.956 193.688 356.955 193.688L356.951 193.69L356.934 193.696L356.867 193.721L356.605 193.818L355.956 194.06L355.571 194.204C354.661 194.544 353.312 195.048 351.557 195.708C348.048 197.026 342.917 198.964 336.424 201.439C327.197 204.956 315.22 209.561 301.241 215.021C295.975 181.146 293.473 148.031 291.998 104.399ZM233.597 199.581C234.831 207.606 236.286 215.519 237.95 221.895C233.04 220.668 227.901 219.781 222.526 219.284C226.183 207.867 229.287 195.925 231.432 183.817C232.061 188.916 232.785 194.297 233.597 199.581ZM240.03 228.675C233.963 226.902 227.488 225.683 220.588 225.139C217.409 234.444 213.898 243.345 210.286 251.64C222.562 246.538 234.56 241.624 246.07 236.962C245.206 236.64 244.481 236.109 243.911 235.556C242.322 234.016 241.071 231.486 240.03 228.675ZM160.102 235.79C180.453 227.752 198.463 224.542 214.346 224.837C210.616 235.563 206.448 245.731 202.217 255.004C178.103 265.089 153.106 275.835 128.771 286.763C104.228 297.786 88.466 303.938 78.1856 306.071C73.0521 307.136 69.6368 307.117 67.3138 306.452C65.1673 305.837 63.7443 304.614 62.6379 302.571C61.8756 301.164 61.923 298.328 65.2487 293.47C68.4408 288.808 74.1045 283.154 82.3405 276.869C98.7719 264.33 124.882 249.703 160.102 235.79ZM253.305 233.689C253.17 233.864 253.035 234.035 252.901 234.202L253.706 233.878C253.668 233.86 253.63 233.842 253.591 233.824C253.496 233.779 253.401 233.734 253.305 233.689ZM256.663 228.64C258.169 229.362 259.649 230.118 261.101 230.906C268.775 227.829 276.168 224.888 283.21 222.106C287.445 220.432 291.552 218.816 295.518 217.261C291.121 189.338 288.599 162.022 287 129.14C281.506 154.764 276.194 175.781 271.118 192.318C266.152 208.498 261.338 220.652 256.663 228.64ZM273.089 238.52C271.315 237.217 269.492 235.962 267.619 234.759C273.757 232.305 279.702 229.944 285.415 227.686C289.216 226.184 292.915 224.728 296.5 223.321C299.377 240.592 302.992 258.263 307.565 277.776C299.325 263.688 288.001 249.471 273.089 238.52ZM247.404 231.36C247.396 231.365 247.392 231.367 247.392 231.366C247.393 231.366 247.396 231.364 247.404 231.36ZM568.568 116.803C570.116 116.214 570.893 114.48 570.303 112.932C569.714 111.384 567.98 110.607 566.432 111.197L534.932 123.197C533.384 123.786 532.607 125.52 533.197 127.068C533.786 128.616 535.52 129.393 537.068 128.803L568.568 116.803ZM508.22 150.958C509.943 149.752 511.503 148.496 512.914 147.207C512.943 147.696 512.974 148.193 513.006 148.695C514.514 171.809 515.484 190.13 514.453 200.13C514.197 202.618 513.834 204.383 513.417 205.509C513.347 205.696 513.283 205.848 513.225 205.972C513.17 205.931 513.11 205.884 513.044 205.83C512.991 205.787 512.934 205.739 512.874 205.687C511.923 204.861 510.64 203.332 509.006 200.85C508.094 199.466 506.234 199.083 504.85 199.995C503.466 200.906 503.083 202.766 503.994 204.15C505.735 206.793 507.374 208.857 508.941 210.218C510.398 211.483 512.526 212.758 514.934 212.062C517.263 211.389 518.423 209.265 519.042 207.595C519.721 205.766 520.147 203.414 520.422 200.745C521.516 190.12 520.486 171.191 518.994 148.305C518.815 145.568 518.702 143.058 518.643 140.761C520.632 137.96 522.064 135.137 523.046 132.448C524.154 129.418 524.693 126.551 524.814 124.071C524.933 121.647 524.66 119.402 523.965 117.708C523.628 116.886 523.074 115.907 522.142 115.213C521.051 114.4 519.585 114.11 518.155 114.712C516.96 115.216 516.172 116.186 515.662 117.022C515.119 117.912 514.675 119.005 514.306 120.248C513.215 123.919 512.495 129.898 512.604 138.805C510.615 141.285 508.051 143.752 504.78 146.042C498.678 150.313 494.507 152.063 491.822 152.538C491.899 152.348 491.973 152.159 492.042 151.972C492.62 150.399 493.106 148.3 492.397 146.377C492.003 145.307 491.267 144.383 490.201 143.773C489.19 143.194 488.066 143 487 143C485.158 143 483.909 144.144 483.243 145.054C482.546 146.007 482.117 147.16 481.899 148.277C481.5 150.321 481.672 153.03 483.208 155.251C482.495 156.156 481.709 157.049 480.879 157.879C477.772 160.986 475.153 163.235 472.973 164.802C474.676 161.988 476.052 159.113 476.764 156.467C477.272 154.58 477.512 152.559 477.08 150.666C476.619 148.642 475.413 146.906 473.397 145.845C470.991 144.579 468.591 145.143 466.779 146.361C465.086 147.5 463.72 149.289 462.672 151.137C460.563 154.854 459.125 159.907 459.125 164.188C459.125 166.311 459.477 168.597 460.613 170.452C460.668 170.541 460.724 170.629 460.781 170.714C460.822 170.775 460.863 170.835 460.905 170.894C459.728 172.184 458.544 173.37 457.405 174.397C456.02 175.647 454.761 176.608 453.713 177.238C453.426 177.41 453.168 177.55 452.94 177.661C452.864 177.397 452.782 177.074 452.696 176.684C452.476 175.685 452.282 174.49 452.063 173.098L452.011 172.765L452.01 172.763C451.81 171.49 451.59 170.09 451.321 168.686C450.749 165.694 449.89 162.294 448.225 159.597C446.461 156.737 443.659 154.5 439.5 154.5C439.409 154.5 439.319 154.504 439.228 154.512C437.633 154.657 436.479 155.565 435.723 156.412C434.97 157.257 434.37 158.307 433.871 159.343C432.949 161.256 432.07 163.778 431.167 166.367L430.955 166.973C430.186 169.176 429.368 171.477 428.44 173.744C428.447 172.278 428.432 170.865 428.382 169.607C428.318 167.998 428.193 166.403 427.91 165.272C427.347 163.017 426.14 161.363 424.428 160.498C422.828 159.689 421.184 159.776 420.051 160.154C418.479 160.678 417.63 162.377 418.154 163.949C418.656 165.456 420.24 166.299 421.755 165.904L421.756 165.905C421.824 165.997 421.966 166.235 422.09 166.728C422.207 167.197 422.323 168.236 422.387 169.843C422.447 171.376 422.454 173.217 422.425 175.156C422.368 179.03 422.17 183.181 422.006 185.813C421.924 187.116 422.695 188.322 423.911 188.795C425.127 189.269 426.51 188.902 427.332 187.888C431.962 182.168 434.633 174.639 436.62 168.952L436.778 168.498L436.778 168.497C437.739 165.746 438.509 163.539 439.276 161.948C439.614 161.246 439.89 160.8 440.094 160.536C441.367 160.696 442.288 161.401 443.119 162.747C444.173 164.456 444.876 166.931 445.429 169.814C445.678 171.117 445.883 172.423 446.086 173.713L446.136 174.031C446.351 175.393 446.571 176.768 446.836 177.972C447.09 179.127 447.44 180.404 448.021 181.449C448.602 182.494 449.84 184 452 184C453.715 184 455.415 183.215 456.805 182.38C458.29 181.486 459.863 180.26 461.423 178.853C463.053 177.383 464.735 175.655 466.365 173.784C466.435 173.787 466.506 173.788 466.577 173.789C466.606 173.789 466.635 173.789 466.663 173.789C469.115 173.783 471.808 172.715 474.702 170.877C477.649 169.005 481.096 166.147 485.121 162.121C486.23 161.012 487.31 159.775 488.292 158.484C489.662 158.75 491.199 158.741 492.866 158.446C496.806 157.75 501.822 155.436 508.22 150.958ZM513.715 206.267C513.719 206.269 513.721 206.269 513.721 206.268C513.721 206.268 513.713 206.265 513.697 206.261C513.705 206.264 513.711 206.266 513.715 206.267ZM520.905 119.974C520.908 119.97 520.909 119.968 520.909 119.968C520.909 119.968 520.908 119.969 520.906 119.972C520.903 119.974 520.899 119.979 520.895 119.984C520.899 119.98 520.902 119.977 520.905 119.974ZM518.322 119.796C518.322 119.796 518.324 119.799 518.328 119.806C518.324 119.799 518.322 119.796 518.322 119.796ZM465.739 164.891C465.567 165.135 465.392 165.378 465.215 165.62C465.158 165.207 465.125 164.731 465.125 164.188C465.125 161.031 466.249 156.99 467.891 154.098C468.717 152.641 469.524 151.746 470.127 151.34C470.381 151.169 470.521 151.137 470.553 151.132C470.562 151.135 470.579 151.142 470.603 151.155C470.962 151.344 471.131 151.561 471.23 151.998C471.36 152.566 471.345 153.514 470.97 154.908C470.221 157.692 468.311 161.261 465.739 164.891ZM406.945 162.43C406.668 160.995 405.396 159.969 403.935 160.001C402.474 160.032 401.248 161.112 401.033 162.558C400.664 165.034 400.278 168.368 400.042 171.928C399.708 171.668 399.35 171.422 398.969 171.196C395.945 169.4 391.973 169.148 387.269 171.264C381.585 173.822 375.177 180.057 371.395 186.095C369.507 189.109 368.031 192.45 367.856 195.559C367.766 197.159 368.016 198.833 368.873 200.351C369.748 201.9 371.118 203.042 372.836 203.765C376.659 205.375 381.074 203.725 384.697 201.48C388.538 199.1 392.508 195.433 395.997 191.228C397.492 189.425 398.919 187.499 400.224 185.5C400.294 186.017 400.374 186.522 400.465 187.011C400.904 189.366 401.699 191.942 403.379 193.621C404.55 194.793 406.45 194.793 407.621 193.621C408.793 192.45 408.793 190.55 407.621 189.379C407.301 189.058 406.762 188.05 406.363 185.911C405.99 183.913 405.823 181.41 405.812 178.676C405.807 177.06 405.856 175.398 405.943 173.761C407.138 169.939 407.643 166.035 406.945 162.43ZM395.906 176.355C396.651 176.797 397.22 177.462 397.608 178.132C395.921 181.343 393.763 184.522 391.378 187.397C388.179 191.254 384.681 194.431 381.537 196.38C378.176 198.462 376.091 198.625 375.164 198.235C374.507 197.958 374.237 197.647 374.098 197.401C373.941 197.124 373.804 196.661 373.847 195.895C373.938 194.269 374.805 191.954 376.48 189.28C379.823 183.943 385.415 178.678 389.731 176.736C393.027 175.252 394.888 175.75 395.906 176.355Z" fill="url(#paint0_linear_6_8)"/>
</g>
<defs>
<filter id="filter0_d_6_8" x="0.1" y="0.1" width="626.847" height="442.8" filterUnits="userSpaceOnUse" color-interpolation-filters="sRGB">
<feFlood flood-opacity="0" result="BackgroundImageFix"/>
<feColorMatrix in="SourceAlpha" type="matrix" values="0 0 0 0 0 0 0 0 0 0 0 0 0 0 0 0 0 0 127 0" result="hardAlpha"/>
<feOffset dx="7" dy="8"/>
<feGaussianBlur stdDeviation="7.45"/>
<feComposite in2="hardAlpha" operator="out"/>
<feColorMatrix type="matrix" values="0 0 0 0 0 0 0 0 0 0 0 0 0 0 0 0 0 0 0.57 0"/>
<feBlend mode="normal" in2="BackgroundImageFix" result="effect1_dropShadow_6_8"/>
<feBlend mode="normal" in="SourceGraphic" in2="effect1_dropShadow_6_8" result="shape"/>
</filter>
<linearGradient id="paint0_linear_6_8" x1="568.726" y1="0.499947" x2="211.668" y2="423.167" gradientUnits="userSpaceOnUse">
<stop stop-color="#52FFFF"/>
<stop offset="0.449" stop-color="#33AFFF"/>
<stop offset="1" stop-color="#0029FF"/>
</linearGradient>
</defs>
</svg>
